<svg xmlns="http://www.w3.org/2000/svg" viewBox="0 0 32 32" width="32" height="32">
  <path d="M16 26 C16 26 7 22 4 8 L4 8 C4 7 5 6 6 6 L15 6 C15.6 6 16 6.4 16 7 L16 26Z"
    fill="#1a1a1a" fill-opacity="0.15" stroke="#1a1a1a" stroke-width="1.5" stroke-linejoin="round"/>
  <path d="M16 26 C16 26 25 22 28 8 L28 8 C28 7 27 6 26 6 L17 6 C16.4 6 16 6.4 16 7 L16 26Z"
    fill="#1a1a1a" fill-opacity="0.15" stroke="#1a1a1a" stroke-width="1.5" stroke-linejoin="round"/>
  <line x1="16" y1="7" x2="16" y2="26" stroke="#1a1a1a" stroke-width="1.5" stroke-linecap="round"/>
  <line x1="8" y1="11" x2="14" y2="11" stroke="#1a1a1a" stroke-width="1" stroke-linecap="round" opacity="0.5"/>
  <line x1="7" y1="14" x2="14" y2="14" stroke="#1a1a1a" stroke-width="1" stroke-linecap="round" opacity="0.5"/>
  <line x1="7" y1="17" x2="14" y2="17" stroke="#1a1a1a" stroke-width="1" stroke-linecap="round" opacity="0.5"/>
  <line x1="18" y1="11" x2="24" y2="11" stroke="#1a1a1a" stroke-width="1" stroke-linecap="round" opacity="0.5"/>
  <line x1="18" y1="14" x2="25" y2="14" stroke="#1a1a1a" stroke-width="1" stroke-linecap="round" opacity="0.5"/>
  <line x1="18" y1="17" x2="25" y2="17" stroke="#1a1a1a" stroke-width="1" stroke-linecap="round" opacity="0.5"/>
</svg>
